<?xml version="1.0" encoding="UTF-8" standalone="no"?>
<svg
   width="240.233"
   height="62.650002"
   viewBox="0 0 240.233 62.650002"
   version="1.1"
   id="svg19"
   sodipodi:docname="ansto.svg"
   xmlns:inkscape="http://www.inkscape.org/namespaces/inkscape"
   xmlns:sodipodi="http://sodipodi.sourceforge.net/DTD/sodipodi-0.dtd"
   xmlns="http://www.w3.org/2000/svg"
   xmlns:svg="http://www.w3.org/2000/svg">
  <defs
     id="defs19" />
  <sodipodi:namedview
     id="namedview19"
     pagecolor="#ffffff"
     bordercolor="#000000"
     borderopacity="0.25"
     inkscape:showpageshadow="2"
     inkscape:pageopacity="0.0"
     inkscape:pagecheckerboard="0"
     inkscape:deskcolor="#d1d1d1" />
  <title
     id="title1">518641F3-F363-4404-9235-87555D84B2FD</title>
  <path
     d="m 90.810993,34.533 h 11.329997 l -5.638997,-15.253 -5.69,15.253 z m 20.906997,13.9 h -3.925 a 0.77,0.77 0 0 1 -0.72,-0.5 l -3.419,-9.183 H 89.348993 l -3.417,9.184 c -0.111,0.3 -0.4,0.5 -0.72,0.5 h -3.612 a 0.767,0.767 0 0 1 -0.716,-1.046 l 13.025,-33.19 a 0.771,0.771 0 0 1 0.717,-0.488 h 4.065 c 0.317,0 0.601,0.194 0.717,0.488 l 13.025997,33.19 a 0.767,0.767 0 0 1 -0.716,1.046 z m 33.985,10e-4 h -3.842 a 0.768,0.768 0 0 1 -0.63,-0.328 l -18.828,-26.848 v 26.409 a 0.768,0.768 0 0 1 -0.769,0.767 h -3.37 a 0.768,0.768 0 0 1 -0.77,-0.767 v -33.19 c 0,-0.424 0.345,-0.767 0.77,-0.767 h 3.895 a 0.77,0.77 0 0 1 0.63,0.327 l 18.775,26.796 V 14.477 c 0,-0.424 0.344,-0.767 0.77,-0.767 h 3.37 c 0.425,0 0.768,0.343 0.768,0.767 v 33.19 a 0.768,0.768 0 0 1 -0.769,0.767 m 46.091,0 h -3.475 a 0.768,0.768 0 0 1 -0.769,-0.767 V 18.082 h -11.708 a 0.768,0.768 0 0 1 -0.77,-0.767 v -2.84 c 0,-0.423 0.344,-0.766 0.77,-0.766 h 28.378 c 0.425,0 0.77,0.343 0.77,0.767 v 2.84 a 0.768,0.768 0 0 1 -0.77,0.766 h -11.657 v 29.584 a 0.768,0.768 0 0 1 -0.77,0.767 m 30.636,-31.079 c -1.905,0 -3.643,0.36 -5.17,1.068 a 11.824,11.824 0 0 0 -3.941,2.94 c -1.092,1.244 -1.943,2.707 -2.532,4.348 -0.589,1.641 -0.888,3.419 -0.888,5.284 0,1.831 0.3,3.591 0.888,5.231 0.587,1.64 1.439,3.102 2.532,4.347 a 12.148,12.148 0 0 0 3.941,2.969 c 1.526,0.725 3.264,1.092 5.17,1.092 1.905,0 3.653,-0.367 5.195,-1.093 a 12.088,12.088 0 0 0 3.968,-2.968 c 1.09,-1.242 1.943,-2.705 2.532,-4.347 0.59,-1.642 0.888,-3.402 0.888,-5.231 0,-1.863 -0.299,-3.641 -0.888,-5.285 -0.59,-1.642 -1.442,-3.104 -2.532,-4.346 a 11.774,11.774 0 0 0 -3.969,-2.942 c -1.542,-0.708 -3.29,-1.067 -5.194,-1.067 m 0,31.964 c -2.493,0 -4.848,-0.481 -6.996,-1.43 a 17.91,17.91 0 0 1 -5.64,-3.906 c -1.594,-1.64 -2.859,-3.594 -3.759,-5.806 -0.9,-2.207 -1.357,-4.606 -1.357,-7.13 0,-2.524 0.457,-4.916 1.358,-7.107 0.9,-2.193 2.156,-4.138 3.734,-5.778 1.574,-1.64 3.471,-2.954 5.637,-3.905 2.167,-0.95 4.529,-1.43 7.023,-1.43 2.493,0 4.855,0.48 7.021,1.43 2.166,0.951 4.072,2.265 5.665,3.905 a 18.098,18.098 0 0 1 3.76,5.779 c 0.901,2.195 1.358,4.585 1.358,7.106 0,2.522 -0.457,4.921 -1.358,7.131 -0.9,2.213 -2.166,4.166 -3.76,5.806 -1.592,1.64 -3.499,2.953 -5.664,3.904 -2.166,0.95 -4.53,1.431 -7.022,1.431 m -58.049,0 c -1.627,0 -3.128,-0.192 -4.464,-0.572 a 18.353,18.353 0 0 1 -3.656,-1.458 15.716,15.716 0 0 1 -2.871,-1.953 15.235,15.235 0 0 1 -1.54,-1.527 0.764,0.764 0 0 1 0.064,-1.067 l 2.447,-2.224 a 0.77,0.77 0 0 1 1.079,0.042 c 0.352,0.375 0.732,0.753 1.134,1.132 0.606,0.57 1.3,1.087 2.063,1.537 0.76,0.448 1.621,0.816 2.557,1.092 0.933,0.277 1.97,0.416 3.082,0.416 2.287,0 4.096,-0.524 5.378,-1.561 1.282,-1.036 1.931,-2.455 1.931,-4.216 0,-1.927 -0.717,-3.332 -2.191,-4.296 -1.454,-0.948 -3.582,-1.728 -6.323,-2.317 -1.487,-0.31 -2.857,-0.747 -4.068,-1.3 -1.212,-0.552 -2.275,-1.253 -3.16,-2.083 a 8.935,8.935 0 0 1 -2.062,-2.89 c -0.485,-1.089 -0.73,-2.34 -0.73,-3.721 0,-1.277 0.245,-2.504 0.73,-3.644 a 8.484,8.484 0 0 1 2.193,-3.02 c 0.971,-0.864 2.2,-1.565 3.655,-2.082 1.455,-0.518 3.16,-0.781 5.065,-0.781 1.697,0 3.181,0.184 4.412,0.547 0.621,0.183 1.218,0.396 1.77,0.633 a 0.767,0.767 0 0 1 0.467,0.705 v 3.373 c 0,0.05 -0.002,0.093 -0.004,0.132 a 0.77,0.77 0 0 1 -0.98,0.69 3.14,3.14 0 0 1 -0.678,-0.302 10.884,10.884 0 0 0 -2.246,-0.963 c -0.85,-0.26 -1.842,-0.39 -2.95,-0.39 -1.11,0 -2.075,0.15 -2.871,0.443 -0.797,0.293 -1.465,0.678 -1.985,1.145 -0.52,0.466 -0.905,1 -1.148,1.588 a 4.64,4.64 0 0 0 -0.366,1.77 c 0,0.864 0.185,1.608 0.548,2.212 0.364,0.606 0.9,1.149 1.592,1.614 0.694,0.467 1.564,0.87 2.585,1.197 1.017,0.327 2.2,0.65 3.52,0.962 1.284,0.312 2.557,0.724 3.79,1.225 a 11.806,11.806 0 0 1 3.315,2.03 9.345,9.345 0 0 1 2.324,3.124 c 0.572,1.226 0.862,2.741 0.862,4.503 0,1.482 -0.317,2.866 -0.94,4.112 a 10.204,10.204 0 0 1 -2.585,3.254 c -1.092,0.917 -2.4,1.635 -3.89,2.135 -1.49,0.5 -3.125,0.754 -4.855,0.754"
     fill="#203d79"
     id="path1"
     style="fill-rule:evenodd"
     inkscape:export-filename="ansto.svg"
     inkscape:export-xdpi="96"
     inkscape:export-ydpi="96" />
  <path
     d="M 46.785993,0.12199989 C 45.583993,41.373 42.191993,36.948 75.895993,53.01 Z"
     fill="#35bfc9"
     id="path17"
     style="fill-rule:evenodd" />
  <path
     d="M 44.639993,-1.0681152e-7 C 41.655993,42.329 46.308993,35.269 -7.0800781e-6,60.745 Z"
     fill="#0078c1"
     id="path18"
     style="fill-rule:evenodd" />
  <path
     d="M 1.0589929,62.65 C 26.376993,57.332 57.756993,54.772 74.748993,54.772 c -35.35,-14.943 -27.777,-15.66 -73.6900001,7.878"
     fill="#203d79"
     id="path19"
     style="fill-rule:evenodd" />
</svg>
