<?xml version="1.0" encoding="utf-8"?>
<!-- Generator: Adobe Illustrator 23.0.0, SVG Export Plug-In . SVG Version: 6.00 Build 0)  -->
<svg version="1.1" id="ess" xmlns="http://www.w3.org/2000/svg" xmlns:xlink="http://www.w3.org/1999/xlink" x="0px" y="0px"
	 viewBox="0 0 396.85 212.598" style="enable-background:new 0 0 396.85 212.598;" xml:space="preserve">
<style type="text/css">
	.st0{fill:#0099DC;}
</style>
<path class="st0" d="M369.037,59.893h-3.25v15.041h-0.469l-6.06-15.041h-5.234v19.063h3.223V63.914h0.468l6.226,15.041h5.096V59.893
	z M247.832,105.987h3.691c4.325,0,6.474-2.507,6.474-6.832c0-4.325-2.149-6.474-6.474-6.474h-6.914v19.063h3.223V105.987z
	 M247.832,95.795h3.664c2.176,0,3.196,1.075,3.196,3.361c0,2.314-1.019,3.719-3.196,3.719h-3.664V95.795z M234.805,100.698
	c-3.195-0.909-4.132-1.322-4.132-2.948c0-1.543,1.129-2.259,3.388-2.259c1.598,0,5.454,0.441,5.454,0.441l0.248-2.893
	c0,0-3.581-0.688-5.702-0.688c-4.105,0-6.612,1.818-6.612,5.454c0,3.416,1.708,4.683,5.84,5.757
	c2.837,0.717,3.636,1.295,3.636,2.783c0,1.846-1.019,2.562-3.278,2.562c-1.956,0-5.454-0.468-5.454-0.468l-0.33,2.893
	c0,0,3.719,0.716,5.812,0.716c3.857,0,6.501-1.818,6.501-5.785C240.177,102.929,238.772,101.855,234.805,100.698z M251.965,79.203
	c4.573,0,7.025-1.818,7.025-6.391v-12.92h-3.251v12.92c0,2.452-1.515,3.223-3.774,3.223c-2.204,0-3.691-0.743-3.691-3.223v-12.92
	h-3.251v12.92C245.022,77.385,247.447,79.203,251.965,79.203z M234.805,133.487c-3.195-0.909-4.132-1.322-4.132-2.948
	c0-1.543,1.129-2.259,3.388-2.259c1.598,0,5.454,0.441,5.454,0.441l0.248-2.893c0,0-3.581-0.688-5.702-0.688
	c-4.105,0-6.612,1.818-6.612,5.454c0,3.416,1.708,4.683,5.84,5.757c2.837,0.717,3.636,1.295,3.636,2.783
	c0,1.846-1.019,2.562-3.278,2.562c-1.956,0-5.454-0.468-5.454-0.468l-0.33,2.893c0,0,3.719,0.716,5.812,0.716
	c3.857,0,6.501-1.818,6.501-5.785C240.177,135.718,238.772,134.643,234.805,133.487z M289.79,79.258
	c5.895,0,7.686-3.251,7.686-9.697c0-6.391-1.791-9.972-7.686-9.972s-7.686,3.581-7.686,9.972
	C282.104,75.953,283.895,79.258,289.79,79.258z M289.79,62.703c3.499,0,4.353,2.424,4.353,6.859c0,4.491-0.826,6.584-4.353,6.584
	c-3.526,0-4.352-2.149-4.352-6.584C285.438,65.127,286.292,62.703,289.79,62.703z M305.699,73.198h3.691
	c4.325,0,6.474-2.507,6.474-6.831c0-4.325-2.149-6.474-6.474-6.474h-6.915v19.063h3.223V73.198z M305.699,63.006h3.664
	c2.176,0,3.196,1.074,3.196,3.361c0,2.314-1.02,3.719-3.196,3.719h-3.664V63.006z M228.607,78.956h11.901V75.87h-8.705v-4.876h7.052
	v-3.03h-7.052v-4.986h8.705v-3.085h-11.901V78.956z M331.713,75.87h-8.705v-4.876h7.052v-3.03h-7.052v-4.986h8.705v-3.085h-11.901
	v19.063h11.901V75.87z M377.006,92.682v15.041h-0.469l-6.06-15.041h-5.234v19.063h3.223V96.703h0.468l6.226,15.041h5.096V92.682
	H377.006z M292.702,92.682v19.063h10.42v-3.113h-7.197v-15.95H292.702z M352.558,92.379c-5.895,0-7.686,3.581-7.686,9.972
	c0,6.391,1.791,9.697,7.686,9.697c5.895,0,7.686-3.251,7.686-9.697C360.243,95.96,358.453,92.379,352.558,92.379z M352.558,108.934
	c-3.526,0-4.353-2.149-4.353-6.584c0-4.435,0.854-6.859,4.353-6.859c3.499,0,4.353,2.424,4.353,6.859
	C356.91,106.841,356.084,108.934,352.558,108.934z M297.211,131.614c0-4.353-2.094-6.143-6.446-6.143h-7.19v19.063h3.223v-6.501
	h4.242l2.617,6.501h3.554l-3.003-7.438C296.164,136.131,297.211,134.478,297.211,131.614z M290.82,134.947h-4.022v-6.391h3.967
	c2.093,0,3.113,1.02,3.113,3.113C293.878,133.625,293.051,134.947,290.82,134.947z M308.839,128.335
	c1.653,0,4.876,0.413,4.876,0.413l0.11-2.838c0,0-3.03-0.743-5.427-0.743c-5.399,0-7.08,2.92-7.08,9.862
	c0,6.501,1.322,9.807,7.08,9.807c2.176,0,5.399-0.688,5.399-0.688l-0.083-2.92c0,0-3.278,0.441-4.766,0.441
	c-3.636,0-4.297-1.791-4.297-6.638C304.652,129.933,305.506,128.335,308.839,128.335z M320.104,95.795h5.289v15.95h3.251v-15.95
	h5.234v-3.113h-13.774V95.795z M338.835,75.209h6.914l1.047,3.746h3.251l-4.491-19.063h-6.363l-4.546,19.063h3.251L338.835,75.209z
	 M341.7,62.868h1.295l2.121,9.228h-5.592L341.7,62.868z M317.052,144.533h11.901v-3.085h-8.705v-4.876h7.052v-3.03h-7.052v-4.986
	h8.705v-3.086h-11.901V144.533z M315.615,92.682h-6.364l-4.545,19.063h3.25l0.937-3.746h6.915l1.046,3.746h3.251L315.615,92.682z
	 M309.581,104.885l2.177-9.228h1.294l2.122,9.228H309.581z M289.976,108.631h-7.197v-15.95h-3.223v19.063h10.42V108.631z
	 M271.281,107.998l1.047,3.746h3.251l-4.491-19.063h-6.363l-4.546,19.063h3.251l0.936-3.746H271.281z M267.232,95.657h1.295
	l2.121,9.228h-5.592L267.232,95.657z M251.551,125.167c-5.895,0-7.686,3.581-7.686,9.972c0,6.391,1.79,9.697,7.686,9.697
	s7.686-3.251,7.686-9.697C259.237,128.749,257.447,125.167,251.551,125.167z M251.551,141.723c-3.526,0-4.352-2.149-4.352-6.584
	c0-4.435,0.854-6.859,4.352-6.859c3.499,0,4.353,2.424,4.353,6.859C255.904,139.63,255.077,141.723,251.551,141.723z
	 M278.183,66.035c0-4.352-2.094-6.143-6.446-6.143h-7.19v19.063h3.223v-6.501h4.242l2.617,6.501h3.554l-3.003-7.438
	C277.136,70.553,278.183,68.901,278.183,66.035z M271.792,69.369h-4.022v-6.391h3.967c2.093,0,3.113,1.019,3.113,3.112
	C274.849,68.047,274.023,69.369,271.792,69.369z M336.621,111.744h3.251V92.682h-3.251V111.744z M274.767,138.39
	c0,2.452-1.515,3.223-3.774,3.223c-2.204,0-3.691-0.743-3.691-3.223v-12.92h-3.251v12.92c0,4.573,2.424,6.391,6.942,6.391
	c4.573,0,7.025-1.818,7.025-6.391v-12.92h-3.251V138.39z"/>
<path class="st0" d="M22.281,54.887c6.711-17.482,20.582-31.019,39.059-38.118c18.503-7.109,39.406-6.911,58.858,0.556
	c11.778,4.521,22.075,11.29,30.604,20.117c6.548,6.777,11.814,14.632,15.45,22.996c-5.851-8.122-13.372-14.981-22.035-20.05
	c-10.903-6.378-23.38-9.75-36.083-9.75c-11.534,0-22.546,2.66-32.729,7.905c-9.715,5.004-18.297,12.301-24.818,21.103
	c-0.233,0.315-0.167,0.758,0.147,0.991c0.314,0.232,0.758,0.167,0.991-0.147c6.393-8.629,14.806-15.783,24.328-20.687
	c9.981-5.141,20.774-7.747,32.08-7.747c12.451,0,24.681,3.305,35.367,9.556c10.372,6.068,19.073,14.752,25.161,25.115
	c0.184,0.312,0.574,0.436,0.903,0.287c0.33-0.149,0.494-0.524,0.381-0.868c-3.578-10.853-9.845-21.119-18.125-29.688
	c-8.674-8.978-19.143-15.86-31.116-20.456c-19.78-7.593-41.043-7.79-59.874-0.555C41.975,22.69,27.814,36.517,20.958,54.379
	c-5.84,15.215-5.818,31.668,0.065,47.58c0.106,0.286,0.377,0.463,0.665,0.463c0.082,0,0.165-0.014,0.246-0.044
	c0.367-0.136,0.554-0.543,0.419-0.911C16.591,85.883,16.566,69.775,22.281,54.887z M151.378,176.783
	c-0.301-0.25-0.748-0.208-0.998,0.092c-10.615,12.782-24.552,20.857-40.304,23.352c-18.495,2.929-37.154-2.315-52.54-14.768
	c-15.408-12.47-25.688-30.671-28.948-51.25c-1.974-12.46-1.26-24.762,2.12-36.562c2.595-9.059,6.765-17.547,12.189-24.878
	c-4.109,9.128-6.288,19.071-6.346,29.108C36.479,114.508,39.798,127,46.149,138c5.767,9.989,13.576,18.195,23.21,24.392
	c9.191,5.911,19.801,9.695,30.685,10.941c0.389,0.045,0.74-0.234,0.785-0.623c0.044-0.388-0.235-0.74-0.623-0.785
	c-10.67-1.222-21.071-4.931-30.08-10.725c-9.443-6.073-17.096-14.117-22.75-23.909c-6.225-10.783-9.479-23.026-9.408-35.407
	c0.069-12.016,3.24-23.894,9.169-34.348c0.179-0.315,0.091-0.715-0.203-0.925c-0.294-0.211-0.701-0.166-0.942,0.104
	c-7.61,8.525-13.367,19.086-16.648,30.541c-3.438,12.001-4.164,24.508-2.157,37.175c3.314,20.926,13.775,39.439,29.456,52.13
	c15.702,12.709,34.757,18.059,53.654,15.066c16.097-2.55,30.334-10.796,41.173-23.846c0.195-0.235,0.213-0.558,0.068-0.807
	C151.498,176.903,151.444,176.838,151.378,176.783z M193.149,50.633c-10.256-12.665-24.516-20.872-41.238-23.734
	c-0.301-0.051-0.59,0.095-0.733,0.344c-0.041,0.071-0.07,0.15-0.085,0.235c-0.066,0.386,0.193,0.752,0.579,0.818
	c16.377,2.802,30.339,10.834,40.376,23.228c11.785,14.553,16.572,33.334,13.481,52.885c-3.095,19.579-13.718,37.582-29.91,50.695
	c-9.804,7.939-20.814,13.472-32.724,16.445c-9.143,2.282-18.579,2.915-27.64,1.883c9.96-1.006,19.66-4.09,28.381-9.058
	c10.975-6.253,20.134-15.373,26.485-26.374c5.767-9.989,8.97-20.855,9.519-32.297c0.524-10.915-1.505-21.996-5.867-32.045
	c-0.156-0.359-0.573-0.524-0.932-0.368c-0.358,0.156-0.523,0.573-0.368,0.932c4.276,9.851,6.265,20.714,5.752,31.413
	c-0.538,11.214-3.678,21.865-9.331,31.656c-6.226,10.783-15.202,19.722-25.959,25.851c-10.441,5.948-22.312,9.141-34.331,9.233
	c-0.362,0.003-0.665,0.279-0.7,0.639c-0.036,0.361,0.206,0.69,0.561,0.764c11.188,2.328,23.212,2.033,34.773-0.853
	c12.112-3.023,23.307-8.648,33.273-16.719c16.465-13.333,27.268-31.65,30.418-51.575C210.083,84.678,205.19,65.502,193.149,50.633z
	 M148.915,85.511c5.314,0,8.548,2.509,9.075,6.187h11.67c-0.129-4.429-2.064-8.104-5.816-10.93
	c-3.886-2.927-8.897-4.441-15.032-4.441c-13.448,0-17.969,6.959-18.918,8.576c-0.944-1.532-5.709-8.576-18.878-8.576
	c-14.119,0-18.487,7.543-19.44,9.567c-4.207-5.386-10.77-9.567-20.511-9.567c-7.499,0-13.732,2.422-18.601,7.266
	c-4.967,4.945-7.402,11.1-7.402,18.67c0,7.569,2.435,13.724,7.402,18.568c4.869,4.844,11.101,7.266,18.601,7.266
	c12.381,0,18.47-7.031,20.204-9.035c1.023,1.661,6.227,9.035,20.36,9.035c13.017,0,17.96-6.169,18.804-7.192
	c1.072,1.264,6.366,7.192,18.992,7.192c6.442,0,11.657-1.413,15.747-4.34c3.988-2.926,6.033-6.661,6.033-11.202
	c0-9.09-7.987-12.974-17.792-14.835c-9.624-1.827-12.791-3.128-12.791-6.761C140.623,87.731,143.61,85.511,148.915,85.511z
	 M71.164,86.233c6.725,0,11.752,4.458,13.439,10.076H58.211C60.026,90.645,64.891,86.233,71.164,86.233z M111.528,118.712
	c-5.867,0-9.612-2.724-9.919-6.761H81.978c-1.475,3.342-5.273,6.241-10.814,6.241c-7.254,0-12.952-5.458-13.439-11.893H96.58
	c0.29-1.1,0.388-2.398,0.389-3.894c2.644,1.625,6.07,2.887,10.26,3.739c9.711,1.975,12.954,3.182,12.954,6.816
	C120.185,116.291,116.967,118.712,111.528,118.712z M145.026,106.145c9.711,1.975,12.954,3.182,12.954,6.816
	c0,3.33-3.217,5.752-8.656,5.752c-5.867,0-9.612-2.724-9.919-6.761h-6.012c-0.35-8.657-8.192-12.411-17.775-14.23
	c-9.625-1.827-12.791-3.128-12.791-6.761c0-3.229,2.988-5.449,8.292-5.449c5.314,0,8.548,2.509,9.075,6.187h7.967
	C128.231,98.794,133.969,103.896,145.026,106.145z"/>
</svg>
