<?xml version="1.0" encoding="UTF-8" standalone="no"?>
<svg
   version="1.1"
   id="svg2"
   xml:space="preserve"
   width="1671.8853"
   height="425.36398"
   viewBox="0 0 1671.8853 425.36399"
   xmlns="http://www.w3.org/2000/svg"
   xmlns:svg="http://www.w3.org/2000/svg"
   xmlns:rdf="http://www.w3.org/1999/02/22-rdf-syntax-ns#"
   xmlns:cc="http://creativecommons.org/ns#"
   xmlns:dc="http://purl.org/dc/elements/1.1/"><metadata
     id="metadata8"><rdf:RDF><cc:Work
         rdf:about=""><dc:format>image/svg+xml</dc:format><dc:type
           rdf:resource="http://purl.org/dc/dcmitype/StillImage" /></cc:Work></rdf:RDF></metadata><defs
     id="defs6"><clipPath
       clipPathUnits="userSpaceOnUse"
       id="clipPath31"><g
         id="g32"><path
           d="M 0,453.534 H 2528.711 V 0 H 0 Z"
           id="path31" /></g></clipPath><clipPath
       clipPathUnits="userSpaceOnUse"
       id="clipPath32"><g
         id="g33"><path
           d="M 0,453.534 H 2528.711 V 0 H 0 Z"
           id="path33" /></g></clipPath><clipPath
       clipPathUnits="userSpaceOnUse"
       id="clipPath43"><g
         id="g45"><path
           d="M 0,453.534 H 2528.711 V 0 H 0 Z"
           id="path44" /></g></clipPath><clipPath
       clipPathUnits="userSpaceOnUse"
       id="clipPath46"><g
         id="g47"><path
           d="M 0,453.534 H 2528.711 V 0 H 0 Z"
           id="path47" /></g></clipPath><clipPath
       clipPathUnits="userSpaceOnUse"
       id="clipPath47"><g
         id="g49"><path
           d="M 0,453.534 H 2528.711 V 0 H 0 Z"
           id="path48" /></g></clipPath><clipPath
       clipPathUnits="userSpaceOnUse"
       id="clipPath49"><g
         id="g50"><path
           d="M 0,453.534 H 2528.711 V 0 H 0 Z"
           id="path49" /></g></clipPath><clipPath
       clipPathUnits="userSpaceOnUse"
       id="clipPath58"><g
         id="g59"><path
           d="M 0,453.534 H 2528.711 V 0 H 0 Z"
           id="path59" /></g></clipPath><clipPath
       clipPathUnits="userSpaceOnUse"
       id="clipPath77"><g
         id="g78"><path
           d="M 0,453.534 H 2528.711 V 0 H 0 Z"
           id="path77" /></g></clipPath><clipPath
       clipPathUnits="userSpaceOnUse"
       id="clipPath86"><g
         id="g89"><g
           id="g87"><path
             d="M 0,453.534 H 2528.711 V 0 H 0 Z"
             id="path87" /></g></g></clipPath><clipPath
       clipPathUnits="userSpaceOnUse"
       id="clipPath90"><g
         id="g93"><g
           id="g91"><path
             d="M 0,453.534 H 2528.711 V 0 H 0 Z"
             id="path91" /></g></g></clipPath><clipPath
       clipPathUnits="userSpaceOnUse"
       id="clipPath94"><g
         id="g96"><g
           id="g95"><path
             d="M 0,453.534 H 2528.711 V 0 H 0 Z"
             id="path95" /></g></g></clipPath><clipPath
       clipPathUnits="userSpaceOnUse"
       id="clipPath97"><g
         id="g100"><g
           id="g99"><path
             d="M 0,453.534 H 2528.711 V 0 H 0 Z"
             id="path97" /></g></g></clipPath><clipPath
       clipPathUnits="userSpaceOnUse"
       id="clipPath101"><g
         id="g104"><g
           id="g103"><path
             d="M 0,453.534 H 2528.711 V 0 H 0 Z"
             id="path101" /></g></g></clipPath><clipPath
       clipPathUnits="userSpaceOnUse"
       id="clipPath105"><g
         id="g108"><g
           id="g107"><path
             d="M 0,453.534 H 2528.711 V 0 H 0 Z"
             id="path105" /></g></g></clipPath><clipPath
       clipPathUnits="userSpaceOnUse"
       id="clipPath109"><g
         id="g112"><g
           id="g111"><path
             d="M 0,453.534 H 2528.711 V 0 H 0 Z"
             id="path109" /></g></g></clipPath><clipPath
       clipPathUnits="userSpaceOnUse"
       id="clipPath113"><g
         id="g115"><g
           id="g114"><path
             d="M 0,453.534 H 2528.711 V 0 H 0 Z"
             id="path113" /></g></g></clipPath><clipPath
       clipPathUnits="userSpaceOnUse"
       id="clipPath116"><g
         id="g119"><g
           id="g117"><path
             d="M 0,453.534 H 2528.711 V 0 H 0 Z"
             id="path117" /></g></g></clipPath><clipPath
       clipPathUnits="userSpaceOnUse"
       id="clipPath120"><g
         id="g122"><g
           id="g121"><path
             d="M 0,453.534 H 2528.711 V 0 H 0 Z"
             id="path121" /></g></g></clipPath><clipPath
       clipPathUnits="userSpaceOnUse"
       id="clipPath123"><g
         id="g125"><g
           id="g124"><path
             d="M 0,453.534 H 2528.711 V 0 H 0 Z"
             id="path123" /></g></g></clipPath><clipPath
       clipPathUnits="userSpaceOnUse"
       id="clipPath126"><g
         id="g129"><g
           id="g127"><path
             d="M 0,453.534 H 2528.711 V 0 H 0 Z"
             id="path127" /></g></g></clipPath><clipPath
       clipPathUnits="userSpaceOnUse"
       id="clipPath130"><g
         id="g132"><g
           id="g131"><path
             d="M 0,453.534 H 2528.711 V 0 H 0 Z"
             id="path131" /></g></g></clipPath><clipPath
       clipPathUnits="userSpaceOnUse"
       id="clipPath133"><g
         id="g136"><g
           id="g135"><path
             d="M 0,453.534 H 2528.711 V 0 H 0 Z"
             id="path133" /></g></g></clipPath><clipPath
       clipPathUnits="userSpaceOnUse"
       id="clipPath137"><g
         id="g140"><g
           id="g139"><path
             d="M 0,453.534 H 2528.711 V 0 H 0 Z"
             id="path137" /></g></g></clipPath><clipPath
       clipPathUnits="userSpaceOnUse"
       id="clipPath141"><g
         id="g144"><g
           id="g143"><path
             d="M 0,453.534 H 2528.711 V 0 H 0 Z"
             id="path141" /></g></g></clipPath><clipPath
       clipPathUnits="userSpaceOnUse"
       id="clipPath145"><g
         id="g148"><g
           id="g147"><path
             d="M 0,453.534 H 2528.711 V 0 H 0 Z"
             id="path145" /></g></g></clipPath><clipPath
       clipPathUnits="userSpaceOnUse"
       id="clipPath149"><g
         id="g152"><g
           id="g151"><path
             d="M 0,453.534 H 2528.711 V 0 H 0 Z"
             id="path149" /></g></g></clipPath><clipPath
       clipPathUnits="userSpaceOnUse"
       id="clipPath153"><g
         id="g156"><g
           id="g155"><path
             d="M 0,453.534 H 2528.711 V 0 H 0 Z"
             id="path153" /></g></g></clipPath><clipPath
       clipPathUnits="userSpaceOnUse"
       id="clipPath157"><g
         id="g160"><g
           id="g159"><path
             d="M 0,453.534 H 2528.711 V 0 H 0 Z"
             id="path157" /></g></g></clipPath><clipPath
       clipPathUnits="userSpaceOnUse"
       id="clipPath161"><g
         id="g163"><g
           id="g162"><path
             d="M 0,453.534 H 2528.711 V 0 H 0 Z"
             id="path161" /></g></g></clipPath><clipPath
       clipPathUnits="userSpaceOnUse"
       id="clipPath164"><g
         id="g166"><g
           id="g165"><path
             d="M 0,453.534 H 2528.711 V 0 H 0 Z"
             id="path165" /></g></g></clipPath><clipPath
       clipPathUnits="userSpaceOnUse"
       id="clipPath167"><g
         id="g169"><g
           id="g168"><path
             d="M 0,453.534 H 2528.711 V 0 H 0 Z"
             id="path167" /></g></g></clipPath><clipPath
       clipPathUnits="userSpaceOnUse"
       id="clipPath171"><g
         id="g173"><g
           id="g172"><path
             d="M 0,453.534 H 2528.711 V 0 H 0 Z"
             id="path171" /></g></g></clipPath><clipPath
       clipPathUnits="userSpaceOnUse"
       id="clipPath174"><g
         id="g177"><g
           id="g175"><path
             d="M 0,453.534 H 2528.711 V 0 H 0 Z"
             id="path175" /></g></g></clipPath><clipPath
       clipPathUnits="userSpaceOnUse"
       id="clipPath178"><g
         id="g181"><g
           id="g179"><path
             d="M 0,453.534 H 2528.711 V 0 H 0 Z"
             id="path179" /></g></g></clipPath><clipPath
       clipPathUnits="userSpaceOnUse"
       id="clipPath182"><g
         id="g185"><g
           id="g183"><path
             d="M 0,453.534 H 2528.711 V 0 H 0 Z"
             id="path183" /></g></g></clipPath><clipPath
       clipPathUnits="userSpaceOnUse"
       id="clipPath186"><g
         id="g189"><g
           id="g187"><path
             d="M 0,453.534 H 2528.711 V 0 H 0 Z"
             id="path187" /></g></g></clipPath><clipPath
       clipPathUnits="userSpaceOnUse"
       id="clipPath266"><g
         id="g268"><g
           id="g267"><path
             d="M 0,453.534 H 2528.711 V 0 H 0 Z"
             id="path266" /></g></g></clipPath><clipPath
       clipPathUnits="userSpaceOnUse"
       id="clipPath269"><g
         id="g271"><g
           id="g270"><path
             d="M 0,453.534 H 2528.711 V 0 H 0 Z"
             id="path269" /></g></g></clipPath><clipPath
       clipPathUnits="userSpaceOnUse"
       id="clipPath272"><g
         id="g274"><g
           id="g273"><path
             d="M 0,453.534 H 2528.711 V 0 H 0 Z"
             id="path272" /></g></g></clipPath><clipPath
       clipPathUnits="userSpaceOnUse"
       id="clipPath275"><g
         id="g277"><g
           id="g276"><path
             d="M 0,453.534 H 2528.711 V 0 H 0 Z"
             id="path275" /></g></g></clipPath></defs><g
     id="g10"
     transform="matrix(1.3333333,0,0,-1.3333333,-113.38667,538.74385)"><g
       id="g278"><path
         d="M 368.503,85.035 H 85.04 v 283.463 h 283.463 z"
         style="fill:#2e2d62;fill-opacity:1;fill-rule:nonzero;stroke:none"
         id="path12" /><path
         d="m 304.2553,226.7673 h -44.433 v 47.447 z m -38.742,-88.209 h -38.742 v -15.491 l -27.269,35.739 c 20.762,3.822 31.484,14.558 31.484,33.253 0,4.613 -0.66,8.731 -1.955,12.382 h 36.482 z m -116.227,65.883 h 30.241 c 12.433,0 17.471,-4.819 17.471,-12.382 0,-7.563 -5.038,-12.536 -17.471,-12.536 h -30.241 z m 77.485,56.141 v -51.281 c -7.037,11.883 -23.223,17.402 -47.244,17.462 21.435,2.177 41.251,13.741 47.244,33.819 m 110.535,76.721 h -33.051 l -44.433,-47.317 v 47.317 h -64.207 v -62.812 c 0,-13.447 -9.956,-21.254 -23.164,-21.254 -13.208,0 -23.165,7.807 -23.165,21.254 v 62.812 h -33.052 v -63.292 c 0,-28.346 22.886,-44.606 48.702,-47.244 h -48.702 v -110.536 h 33.052 v 40.966 h 14.438 l 30.542,-40.966 h 143.04 v 22.327 h -38.741 v 65.883 h 38.741 v 29.161 l -47.374,48.509 47.374,48.356 z"
         style="fill:#ffffff;fill-opacity:1;fill-rule:nonzero;stroke:none"
         id="path24"
         clip-path="url(#clipPath94)" /><path
         d="M 395.4643,368.487 572.0453,136.442 V 252.93 h 79.922 v 115.557 z"
         style="fill:#003088;fill-opacity:1;fill-rule:nonzero;stroke:none"
         id="path28"
         clip-path="url(#clipPath90)" /><path
         d="m 572.0449,252.9299 v -116.488 l -176.581,232.045 -26.961,35.571 v -35.571 -283.452 h 283.464 v 167.895 z"
         style="fill:#1e5df8;fill-opacity:1;fill-rule:nonzero;stroke:none"
         id="path32"
         clip-path="url(#clipPath133)" /><path
         d="m 746.0703,280.6042 c -12.303,0 -20.827,8.042 -20.827,18.576 h 10.454 c 0.965,-6.996 6.755,-8.604 10.293,-8.604 2.734,0 8.202,0.965 8.202,6.191 0,4.745 -4.584,6.675 -9.167,8.443 -7.559,2.976 -18.254,6.595 -18.254,17.29 0,9.489 8.282,15.279 18.334,15.279 11.659,0 18.173,-7.801 18.173,-14.957 h -10.292 c -0.563,3.136 -4.02,5.146 -8.042,5.146 -3.859,0 -7.076,-1.929 -7.076,-5.468 0,-3.458 3.137,-4.825 8.604,-7.318 5.87,-2.653 18.415,-5.79 18.415,-18.495 0,-10.534 -8.605,-16.083 -18.817,-16.083"
         style="fill:#000000;fill-opacity:1;fill-rule:nonzero;stroke:none"
         id="path36"
         clip-path="url(#clipPath97)" /><path
         d="m 790.3036,280.6042 c -11.178,0 -20.344,8.604 -20.344,20.426 0,11.981 9.489,20.586 20.746,20.586 9.168,0 16.967,-5.71 19.219,-15.118 h -10.935 c -1.69,3.296 -4.665,5.387 -8.526,5.387 -5.629,0 -10.131,-4.503 -10.131,-10.775 0,-6.273 4.502,-10.776 10.131,-10.776 3.619,0 6.434,1.85 8.203,4.826 h 11.018 c -2.574,-9.57 -10.858,-14.556 -19.381,-14.556"
         style="fill:#000000;fill-opacity:1;fill-rule:nonzero;stroke:none"
         id="path40"
         clip-path="url(#clipPath130)" /><path
         d="m 828.185,281.007 h -10.293 v 40.207 h 10.293 z m -12.063,51.464 c 0,3.861 3.137,6.835 6.916,6.835 3.699,0 6.754,-2.974 6.754,-6.835 0,-3.618 -3.055,-6.755 -6.754,-6.755 -3.779,0 -6.916,3.137 -6.916,6.755"
         style="fill:#000000;fill-opacity:1;fill-rule:nonzero;stroke:none"
         id="path42"
         clip-path="url(#clipPath77)" /><path
         d="m 846.4423,306.1764 h 18.092 c -1.205,4.744 -4.502,6.674 -8.524,6.674 -4.422,0 -7.961,-2.493 -9.568,-6.674 m 28.707,-8.122 h -29.352 c 1.207,-6.111 6.192,-8.363 10.536,-8.363 5.466,0 7.798,3.378 7.798,3.378 h 10.133 c -3.054,-8.042 -10.373,-12.465 -18.254,-12.465 -10.855,0 -20.343,8.283 -20.343,20.827 0,12.465 9.408,20.184 20.021,20.184 10.293,0 20.748,-7.157 19.461,-23.561"
         style="fill:#000000;fill-opacity:1;fill-rule:nonzero;stroke:none"
         id="path46"
         clip-path="url(#clipPath105)" /><path
         d="m 920.6708,302.7985 v -21.792 h -10.695 v 19.38 c 0,1.367 0.965,11.499 -6.756,11.901 -3.779,0.241 -10.533,-1.849 -10.533,-12.384 v -18.897 h -10.616 v 40.207 h 8.204 l 1.365,-4.905 h 1.367 c 1.689,2.01 5.469,5.307 12.225,5.307 10.373,0 15.439,-7.719 15.439,-18.817"
         style="fill:#000000;fill-opacity:1;fill-rule:nonzero;stroke:none"
         id="path50"
         clip-path="url(#clipPath113)" /><path
         d="m 947.9326,280.6042 c -11.178,0 -20.344,8.604 -20.344,20.426 0,11.981 9.489,20.586 20.746,20.586 9.168,0 16.967,-5.71 19.219,-15.118 h -10.935 c -1.69,3.296 -4.665,5.387 -8.526,5.387 -5.629,0 -10.131,-4.503 -10.131,-10.775 0,-6.273 4.502,-10.776 10.131,-10.776 3.619,0 6.434,1.85 8.203,4.826 h 11.018 c -2.574,-9.57 -10.858,-14.556 -19.381,-14.556"
         style="fill:#000000;fill-opacity:1;fill-rule:nonzero;stroke:none"
         id="path54"
         clip-path="url(#clipPath109)" /><path
         d="m 983.6435,306.1764 h 18.092 c -1.205,4.744 -4.502,6.674 -8.524,6.674 -4.422,0 -7.961,-2.493 -9.568,-6.674 m 28.707,-8.122 h -29.352 c 1.207,-6.111 6.192,-8.363 10.536,-8.363 5.466,0 7.798,3.378 7.798,3.378 h 10.133 c -3.054,-8.042 -10.373,-12.465 -18.254,-12.465 -10.855,0 -20.343,8.283 -20.343,20.827 0,12.465 9.408,20.184 20.021,20.184 10.293,0 20.748,-7.157 19.461,-23.561"
         style="fill:#000000;fill-opacity:1;fill-rule:nonzero;stroke:none"
         id="path58"
         clip-path="url(#clipPath101)" /><path
         d="m 1065.0303,297.8932 v 0.805 c -7.316,-0.805 -14.555,-1.69 -14.555,-5.87 0,-6.113 13.912,-5.63 14.555,5.065 m 14.637,-9.167 v -7.72 h -2.414 c -4.662,0 -7.961,1.689 -9.327,5.147 -2.414,-3.297 -6.433,-5.549 -12.707,-5.549 -9.085,0 -14.875,4.664 -14.875,11.901 0,12.545 17.127,13.671 24.848,14.073 -0.162,4.664 -2.734,6.352 -6.836,6.352 -5.709,0 -6.111,-3.457 -6.111,-3.457 h -10.051 c 0.723,7.156 6.594,12.143 16.404,12.143 9.569,0 16.325,-4.745 16.325,-16.406 v -10.694 c 0,-4.664 1.687,-5.79 4.744,-5.79"
         style="fill:#000000;fill-opacity:1;fill-rule:nonzero;stroke:none"
         id="path62"
         clip-path="url(#clipPath116)" /><path
         d="m 1124.2217,302.7985 v -21.792 h -10.695 v 19.38 c 0,1.367 0.965,11.499 -6.756,11.901 -3.779,0.241 -10.533,-1.849 -10.533,-12.384 v -18.897 h -10.616 v 40.207 h 8.204 l 1.365,-4.905 h 1.367 c 1.689,2.01 5.469,5.307 12.225,5.307 10.373,0 15.439,-7.719 15.439,-18.817"
         style="fill:#000000;fill-opacity:1;fill-rule:nonzero;stroke:none"
         id="path66"
         clip-path="url(#clipPath137)" /><path
         d="m 1160.249,301.11 c 0,6.674 -3.619,10.614 -8.846,10.614 -4.906,0 -9.81,-3.538 -9.81,-10.614 0,-7.076 4.904,-10.614 9.81,-10.614 5.227,0 8.846,3.939 8.846,10.614 m 10.051,36.99 v -57.094 h -7.881 l -1.125,3.861 h -1.207 c -2.492,-2.735 -5.869,-4.263 -10.211,-4.263 -10.213,0 -18.736,8.363 -18.736,20.506 0,12.143 8.523,20.506 18.736,20.506 4.182,0 7.799,-1.448 10.373,-4.343 V 338.1 Z"
         style="fill:#000000;fill-opacity:1;fill-rule:nonzero;stroke:none"
         id="path70"
         clip-path="url(#clipPath120)" /><path
         d="m 764.0029,244.9391 h -15.198 v -46.318 h -10.776 v 46.318 h -15.198 v 9.972 h 41.172 z"
         style="fill:#000000;fill-opacity:1;fill-rule:nonzero;stroke:none"
         id="path74"
         clip-path="url(#clipPath123)" /><path
         d="m 771.4853,223.7907 h 18.092 c -1.205,4.744 -4.502,6.674 -8.524,6.674 -4.422,0 -7.961,-2.493 -9.568,-6.674 m 28.707,-8.123 h -29.352 c 1.207,-6.111 6.192,-8.361 10.536,-8.361 5.466,0 7.798,3.377 7.798,3.377 h 10.133 c -3.054,-8.041 -10.373,-12.465 -18.254,-12.465 -10.855,0 -20.343,8.283 -20.343,20.828 0,12.464 9.408,20.183 20.021,20.183 10.293,0 20.748,-7.157 19.461,-23.562"
         style="fill:#000000;fill-opacity:1;fill-rule:nonzero;stroke:none"
         id="path78"
         clip-path="url(#clipPath126)" /><path
         d="m 826.1728,198.2184 c -11.178,0 -20.344,8.605 -20.344,20.426 0,11.981 9.489,20.586 20.746,20.586 9.168,0 16.967,-5.71 19.219,-15.119 h -10.935 c -1.69,3.297 -4.665,5.388 -8.526,5.388 -5.629,0 -10.131,-4.503 -10.131,-10.775 0,-6.272 4.502,-10.776 10.131,-10.776 3.619,0 6.434,1.85 8.203,4.825 h 11.016 c -2.572,-9.569 -10.856,-14.555 -19.379,-14.555"
         style="fill:#000000;fill-opacity:1;fill-rule:nonzero;stroke:none"
         id="path82"
         clip-path="url(#clipPath141)" /><path
         d="m 890.7529,220.4137 v -21.793 h -10.775 v 19.379 c 0,3.941 0.644,11.902 -6.594,11.902 -3.537,0 -10.373,-1.849 -10.373,-12.384 v -18.897 h -10.776 v 57.094 h 10.213 v -21.069 h 1.368 c 1.929,2.011 5.628,4.584 11.58,4.584 10.373,0 15.357,-7.719 15.357,-18.816"
         style="fill:#000000;fill-opacity:1;fill-rule:nonzero;stroke:none"
         id="path86"
         clip-path="url(#clipPath145)" /><path
         d="m 938.8466,220.4137 v -21.793 h -10.695 v 19.379 c 0,1.367 0.965,11.5 -6.756,11.902 -3.779,0.241 -10.533,-1.849 -10.533,-12.384 v -18.897 h -10.616 v 40.207 h 8.204 l 1.365,-4.905 h 1.367 c 1.689,2.011 5.469,5.307 12.225,5.307 10.373,0 15.439,-7.719 15.439,-18.816"
         style="fill:#000000;fill-opacity:1;fill-rule:nonzero;stroke:none"
         id="path90"
         clip-path="url(#clipPath149)" /><path
         d="m 976.3232,218.7243 c 0,6.272 -3.699,11.178 -9.811,11.178 -6.111,0 -10.212,-4.906 -10.212,-11.178 0,-6.271 4.101,-11.178 10.212,-11.178 6.112,0 9.811,4.907 9.811,11.178 m -30.557,-0.08 c 0,12.866 9.971,20.586 20.746,20.586 10.856,0 20.344,-7.801 20.344,-20.426 0,-12.785 -9.81,-20.586 -20.666,-20.586 -10.935,0 -20.424,7.801 -20.424,20.426"
         style="fill:#000000;fill-opacity:1;fill-rule:nonzero;stroke:none"
         id="path94"
         clip-path="url(#clipPath153)" /><path
         d="m 1004.231,198.621 h -10.453 v 57.094 h 10.453 z"
         style="fill:#000000;fill-opacity:1;fill-rule:nonzero;stroke:none"
         id="path96"
         clip-path="url(#clipPath58)" /><path
         d="m 1041.7881,218.7243 c 0,6.272 -3.699,11.178 -9.811,11.178 -6.111,0 -10.212,-4.906 -10.212,-11.178 0,-6.271 4.101,-11.178 10.212,-11.178 6.112,0 9.811,4.907 9.811,11.178 m -30.557,-0.08 c 0,12.866 9.971,20.586 20.746,20.586 10.856,0 20.344,-7.801 20.344,-20.426 0,-12.785 -9.81,-20.586 -20.666,-20.586 -10.935,0 -20.424,7.801 -20.424,20.426"
         style="fill:#000000;fill-opacity:1;fill-rule:nonzero;stroke:none"
         id="path100"
         clip-path="url(#clipPath157)" /><path
         d="m 1068.0088,225.7204 c 0,-3.057 2.172,-5.307 6.836,-5.307 4.584,0 6.834,2.25 6.834,5.307 0,2.976 -2.25,5.066 -6.834,5.066 -4.584,0 -6.836,-2.01 -6.836,-5.066 m 15.199,-29.994 c 0,2.17 -1.769,3.859 -6.273,3.859 -2.252,0 -5.387,0 -7.719,0.08 l -2.734,-2.894 c -0.483,-2.01 1.527,-5.307 8.603,-5.307 5.229,0 8.123,1.688 8.123,4.262 m 9.891,-0.322 c -0.322,-9.086 -8.606,-13.268 -18.174,-13.268 -12.465,0 -19.621,7.156 -17.771,15.842 l 4.584,3.699 c -2.575,1.607 -4.262,4.1 -4.262,7.076 0,3.297 2.09,5.629 4.984,7.156 -2.732,2.493 -4.099,5.872 -4.099,9.65 0,7.72 5.949,13.751 16.082,13.751 3.539,0 6.673,-0.724 9.168,-2.011 4.341,2.011 6.834,5.228 6.834,5.228 l 4.986,-6.675 c 0,0 -2.735,-1.85 -6.434,-2.976 1.528,-2.09 2.332,-4.583 2.332,-7.236 0,-7.641 -6.996,-13.752 -17.129,-13.752 -2.089,0 -4.019,0.242 -5.709,0.725 -0.642,-0.403 -1.205,-1.045 -1.205,-2.01 0,-2.897 4.422,-2.414 7.157,-2.414 h 5.629 c 8.845,0 13.267,-6.03 13.027,-12.785"
         style="fill:#000000;fill-opacity:1;fill-rule:nonzero;stroke:none"
         id="path104"
         clip-path="url(#clipPath161)" /><path
         d="m 1141.7529,238.8278 -13.992,-41.734 c -2.252,-6.676 -4.906,-14.957 -17.047,-14.957 -7.238,0 -11.018,2.894 -12.225,4.421 l 5.067,7.159 c 0.402,-0.403 2.894,-2.494 6.273,-2.494 3.377,0 5.629,1.367 6.514,4.101 l 1.125,3.297 h -5.389 l -13.83,40.207 h 11.178 l 10.131,-29.271 h 1.609 l 9.811,29.271 z"
         style="fill:#000000;fill-opacity:1;fill-rule:nonzero;stroke:none"
         id="path108"
         clip-path="url(#clipPath164)" /><path
         d="m 737.6269,162.3122 v -12.543 h 21.47 v -9.891 h -21.47 v -23.643 h -10.775 v 33.534 22.756 h 37.071 v -10.213 z"
         style="fill:#000000;fill-opacity:1;fill-rule:nonzero;stroke:none"
         id="path112"
         clip-path="url(#clipPath167)" /><path
         d="m 790.624,133.1222 v 0.805 c -7.316,-0.805 -14.555,-1.69 -14.555,-5.871 0,-6.112 13.912,-5.629 14.555,5.066 m 14.637,-9.166 v -7.721 h -2.414 c -4.662,0 -7.961,1.69 -9.327,5.147 -2.414,-3.297 -6.433,-5.549 -12.707,-5.549 -9.085,0 -14.875,4.664 -14.875,11.902 0,12.543 17.127,13.67 24.848,14.073 -0.162,4.664 -2.734,6.351 -6.836,6.351 -5.709,0 -6.111,-3.457 -6.111,-3.457 h -10.051 c 0.723,7.156 6.594,12.143 16.404,12.143 9.569,0 16.325,-4.744 16.325,-16.405 v -10.695 c 0,-4.664 1.687,-5.789 4.744,-5.789"
         style="fill:#000000;fill-opacity:1;fill-rule:nonzero;stroke:none"
         id="path116"
         clip-path="url(#clipPath86)" /><path
         d="m 829.0673,115.8332 c -11.178,0 -20.344,8.605 -20.344,20.426 0,11.98 9.489,20.586 20.746,20.586 9.168,0 16.967,-5.709 19.219,-15.119 h -10.935 c -1.69,3.298 -4.665,5.388 -8.526,5.388 -5.629,0 -10.131,-4.504 -10.131,-10.775 0,-6.272 4.502,-10.776 10.131,-10.776 3.619,0 6.434,1.85 8.203,4.825 h 11.016 c -2.572,-9.569 -10.856,-14.555 -19.379,-14.555"
         style="fill:#000000;fill-opacity:1;fill-rule:nonzero;stroke:none"
         id="path120"
         clip-path="url(#clipPath178)" /><path
         d="m 866.95,116.236 h -10.293 v 40.208 h 10.293 z m -12.062,51.465 c 0,3.859 3.136,6.836 6.916,6.836 3.699,0 6.754,-2.977 6.754,-6.836 0,-3.619 -3.055,-6.754 -6.754,-6.754 -3.78,0 -6.916,3.135 -6.916,6.754"
         style="fill:#000000;fill-opacity:1;fill-rule:nonzero;stroke:none"
         id="path122"
         clip-path="url(#clipPath49)" /><path
         d="m 886.251,116.236 h -10.453 v 57.094 h 10.453 z"
         style="fill:#000000;fill-opacity:1;fill-rule:nonzero;stroke:none"
         id="path124"
         clip-path="url(#clipPath47)" /><path
         d="m 906.034,116.236 h -10.293 v 40.208 h 10.293 z m -12.062,51.465 c 0,3.859 3.136,6.836 6.916,6.836 3.699,0 6.754,-2.977 6.754,-6.836 0,-3.619 -3.055,-6.754 -6.754,-6.754 -3.78,0 -6.916,3.135 -6.916,6.754"
         style="fill:#000000;fill-opacity:1;fill-rule:nonzero;stroke:none"
         id="path126"
         clip-path="url(#clipPath46)" /><path
         d="m 943.7509,119.2101 c 0,0 -3.377,-3.377 -9.568,-3.377 -7.721,0 -14.395,5.227 -14.395,13.35 v 18.656 h -8.041 v 7.879 h 4.02 c 2.734,0 4.584,1.85 4.584,4.746 v 8.041 h 9.73 v -12.062 h 10.131 v -8.604 h -10.131 v -18.014 c 0,-2.734 2.252,-4.824 5.147,-4.824 2.412,0 4.664,1.367 4.664,1.367 z"
         style="fill:#000000;fill-opacity:1;fill-rule:nonzero;stroke:none"
         id="path130"
         clip-path="url(#clipPath174)" /><path
         d="m 958.472,116.236 h -10.293 v 40.208 h 10.293 z m -12.063,51.465 c 0,3.859 3.137,6.836 6.916,6.836 3.699,0 6.754,-2.977 6.754,-6.836 0,-3.619 -3.055,-6.754 -6.754,-6.754 -3.779,0 -6.916,3.135 -6.916,6.754"
         style="fill:#000000;fill-opacity:1;fill-rule:nonzero;stroke:none"
         id="path132"
         clip-path="url(#clipPath43)" /><path
         d="m 976.7275,141.4054 h 18.092 c -1.205,4.744 -4.502,6.674 -8.524,6.674 -4.422,0 -7.961,-2.492 -9.568,-6.674 m 28.707,-8.123 h -29.352 c 1.207,-6.111 6.192,-8.361 10.536,-8.361 5.466,0 7.798,3.377 7.798,3.377 h 10.133 c -3.054,-8.041 -10.373,-12.465 -18.254,-12.465 -10.855,0 -20.343,8.283 -20.343,20.828 0,12.463 9.408,20.184 20.021,20.184 10.293,0 20.748,-7.159 19.461,-23.563"
         style="fill:#000000;fill-opacity:1;fill-rule:nonzero;stroke:none"
         id="path136"
         clip-path="url(#clipPath182)" /><path
         d="m 1027.3936,148.3215 c -3.377,0 -4.824,-1.689 -4.824,-3.379 0,-2.732 3.619,-3.537 6.031,-4.019 7.156,-1.53 14.395,-3.7 14.395,-12.223 0,-8.283 -6.836,-12.867 -15.12,-12.867 -9.246,0 -16.404,5.629 -16.886,14.152 h 9.89 c 0.242,-2.412 1.85,-5.547 6.756,-5.547 4.102,0 5.067,2.17 5.067,3.86 0,2.974 -2.815,3.859 -5.549,4.502 -4.744,1.046 -14.957,2.976 -14.957,12.142 0,7.881 7.558,11.903 15.359,11.903 9.006,0 14.957,-5.469 15.44,-12.223 h -9.891 c -0.322,1.367 -1.609,3.699 -5.711,3.699"
         style="fill:#000000;fill-opacity:1;fill-rule:nonzero;stroke:none"
         id="path140"
         clip-path="url(#clipPath186)" /><path
         d="m 1115.5342,133.1222 c -3.217,-10.775 -12.223,-17.289 -23.078,-17.289 -14.717,0 -25.41,12.062 -25.41,28.547 0,16.485 10.613,28.547 25.33,28.547 10.775,0 19.941,-6.513 23.158,-17.289 h -12.143 c -2.089,4.504 -5.869,6.674 -10.855,6.674 -9.168,0 -14.395,-7.477 -14.395,-17.932 0,-10.453 5.309,-17.932 14.555,-17.932 4.986,0 8.606,2.17 10.695,6.674 z"
         style="fill:#000000;fill-opacity:1;fill-rule:nonzero;stroke:none"
         id="path144"
         clip-path="url(#clipPath171)" /><path
         d="m 1150.5205,136.339 c 0,6.271 -3.699,11.178 -9.811,11.178 -6.111,0 -10.212,-4.907 -10.212,-11.178 0,-6.271 4.101,-11.178 10.212,-11.178 6.112,0 9.811,4.907 9.811,11.178 m -30.557,-0.08 c 0,12.865 9.971,20.586 20.746,20.586 10.856,0 20.344,-7.801 20.344,-20.426 0,-12.785 -9.81,-20.586 -20.666,-20.586 -10.935,0 -20.424,7.801 -20.424,20.426"
         style="fill:#000000;fill-opacity:1;fill-rule:nonzero;stroke:none"
         id="path148"
         clip-path="url(#clipPath266)" /><path
         d="m 1206.4131,156.443 v -40.208 h -8.041 l -1.447,4.504 h -1.045 c -1.61,-2.011 -5.147,-4.906 -11.74,-4.906 -10.696,0 -16.165,7.559 -16.165,18.817 v 21.793 h 10.936 v -19.379 c 0,-4.987 0.402,-11.903 7.318,-11.903 3.539,0 9.329,1.85 9.329,12.385 v 18.897 z"
         style="fill:#000000;fill-opacity:1;fill-rule:nonzero;stroke:none"
         id="path152"
         clip-path="url(#clipPath269)" /><path
         d="m 1254.5068,138.0285 v -21.793 h -10.695 v 19.379 c 0,1.367 0.965,11.5 -6.756,11.902 -3.779,0.241 -10.533,-1.849 -10.533,-12.384 v -18.897 h -10.616 v 40.208 h 8.204 l 1.365,-4.907 h 1.367 c 1.689,2.012 5.469,5.309 12.225,5.309 10.373,0 15.439,-7.721 15.439,-18.817"
         style="fill:#000000;fill-opacity:1;fill-rule:nonzero;stroke:none"
         id="path156"
         clip-path="url(#clipPath272)" /><path
         d="m 1281.7705,115.8332 c -11.178,0 -20.344,8.605 -20.344,20.426 0,11.98 9.489,20.586 20.746,20.586 9.168,0 16.967,-5.709 19.219,-15.119 h -10.935 c -1.69,3.298 -4.665,5.388 -8.526,5.388 -5.629,0 -10.131,-4.504 -10.131,-10.775 0,-6.272 4.502,-10.776 10.131,-10.776 3.619,0 6.434,1.85 8.203,4.825 h 11.016 c -2.572,-9.569 -10.856,-14.555 -19.379,-14.555"
         style="fill:#000000;fill-opacity:1;fill-rule:nonzero;stroke:none"
         id="path160"
         clip-path="url(#clipPath275)" /><path
         d="m 1319.653,116.236 h -10.293 v 40.208 h 10.293 z m -12.062,51.465 c 0,3.859 3.137,6.836 6.916,6.836 3.699,0 6.754,-2.977 6.754,-6.836 0,-3.619 -3.055,-6.754 -6.754,-6.754 -3.779,0 -6.916,3.135 -6.916,6.754"
         style="fill:#000000;fill-opacity:1;fill-rule:nonzero;stroke:none"
         id="path162"
         clip-path="url(#clipPath32)" /><path
         d="m 1338.954,116.236 h -10.453 v 57.094 h 10.453 z"
         style="fill:#000000;fill-opacity:1;fill-rule:nonzero;stroke:none"
         id="path164"
         clip-path="url(#clipPath31)" /></g></g></svg>
