<?xml version="1.0" encoding="utf-8"?>
<!-- Generator: Adobe Illustrator 21.0.2, SVG Export Plug-In . SVG Version: 6.00 Build 0)  -->
<svg version="1.1" id="Layer_1" xmlns="http://www.w3.org/2000/svg" xmlns:xlink="http://www.w3.org/1999/xlink" x="0px" y="0px"
	 viewBox="0 0 100 100" style="enable-background:new 0 0 100 100;" xml:space="preserve">
<g>
	<path d="M9.1,36.6l36,20.3c1.5,1,3.2,1.5,4.9,1.5s3.4-0.5,4.9-1.5l36-20.3c1.9-1.1,3.1-3,3.1-5.2c0-2.2-1.2-4.1-3.1-5.2l-36-19.9
		c-2.9-2-6.8-2-9.8,0l-36,19.9c-2,1.1-3.1,3-3.1,5.2C6,33.6,7.1,35.5,9.1,36.6z M11.1,29.8l36-19.9c0.1,0,0.1-0.1,0.2-0.1
		c0,0,0,0,0,0c0,0,0,0,0,0c1.6-1.1,3.8-1.1,5.4,0c0,0,0,0,0,0c0,0,0,0,0,0c0,0,0,0,0,0c0.1,0,0.1,0.1,0.2,0.1l36,19.9
		c0.7,0.4,1.1,1,1.1,1.7c0,0.7-0.4,1.3-1.1,1.7L52.9,53.5c-0.1,0-0.1,0.1-0.2,0.1c-1.6,1.1-3.8,1.1-5.4,0c-0.1,0-0.1-0.1-0.2-0.1
		L11.1,33.1c-0.7-0.4-1.1-1-1.1-1.7C10,30.8,10.4,30.1,11.1,29.8z"/>
	<path d="M90.9,44.8c-1-0.5-2.2-0.2-2.7,0.8c-0.5,1-0.2,2.2,0.8,2.7c0.7,0.4,1.1,1,1.1,1.7c0,0.7-0.4,1.3-1.1,1.7L52.9,72.1
		c-0.1,0-0.1,0.1-0.2,0.1c-1.6,1.1-3.8,1.1-5.4,0c-0.1,0-0.1-0.1-0.2-0.1L11.1,51.7c-0.7-0.4-1.1-1-1.1-1.7c0-0.7,0.4-1.3,1.1-1.7
		c1-0.5,1.3-1.8,0.8-2.7c-0.5-1-1.8-1.3-2.7-0.8c-2,1.1-3.1,3-3.1,5.2c0,2.2,1.1,4.1,3.1,5.2l36,20.3c1.5,1,3.2,1.5,4.9,1.5
		c1.7,0,3.4-0.5,4.9-1.5l36-20.3c1.9-1.1,3.1-3,3.1-5.2C94,47.9,92.8,45.9,90.9,44.8z"/>
	<path d="M90.9,62.8c-1-0.5-2.2-0.2-2.7,0.8c-0.5,1-0.2,2.2,0.8,2.7c0.7,0.4,1.1,1,1.1,1.7c0,0.7-0.4,1.3-1.1,1.7L52.9,90.1
		c-0.1,0-0.1,0.1-0.2,0.1c-1.6,1.1-3.8,1.1-5.4,0c-0.1,0-0.1-0.1-0.2-0.1L11.1,69.7c-0.7-0.4-1.1-1-1.1-1.7c0-0.7,0.4-1.3,1.1-1.7
		c1-0.5,1.3-1.8,0.8-2.7s-1.8-1.3-2.7-0.8c-2,1.1-3.1,3-3.1,5.2c0,2.2,1.1,4.1,3.1,5.2l36,20.3c1.5,1,3.2,1.5,4.9,1.5
		c1.7,0,3.4-0.5,4.9-1.5l36-20.3c1.9-1.1,3.1-3,3.1-5.2C94,65.9,92.8,63.9,90.9,62.8z"/>
</g>
</svg>
