<?xml version="1.0" encoding="utf-8"?>
<!-- Generator: Adobe Illustrator 21.0.2, SVG Export Plug-In . SVG Version: 6.00 Build 0)  -->
<svg version="1.1" id="Layer_1" xmlns="http://www.w3.org/2000/svg" xmlns:xlink="http://www.w3.org/1999/xlink" x="0px" y="0px"
	 viewBox="0 0 100 100" style="enable-background:new 0 0 100 100;" xml:space="preserve">
<path d="M50.5,39.5c-1.7,0-3-1.3-3-3c0-4.3,1.7-8.3,4.7-11.3L66.3,11c3-3,7-4.7,11.3-4.7C81.9,6.4,86,8,89,11c3,3,4.7,7,4.7,11.3
	c0,4.3-1.7,8.3-4.7,11.3L74.8,47.8c-3,3-7,4.7-11.3,4.7c-1.7,0-3-1.3-3-3c0-1.7,1.3-3,3-3c2.7,0,5.2-1,7.1-2.9l14.1-14.1
	c1.9-1.9,2.9-4.4,2.9-7.1s-1-5.2-2.9-7.1c-1.9-1.9-4.4-2.9-7.1-2.9s-5.2,1-7.1,2.9L56.4,29.4c-1.9,1.9-2.9,4.4-2.9,7.1
	C53.5,38.2,52.2,39.5,50.5,39.5z M66.3,33.7c-1.2-1.2-3.1-1.2-4.2,0L33.7,62c-0.6,0.6-0.9,1.4-0.9,2.1s0.3,1.5,0.9,2.1
	c1.2,1.2,3.1,1.2,4.2,0L66.3,38C67.4,36.8,67.4,34.9,66.3,33.7z M33.7,89l14.1-14.1c3-3,4.7-7,4.7-11.3c0-1.7-1.3-3-3-3
	c-1.7,0-3,1.3-3,3c0,2.7-1,5.2-2.9,7.1L29.4,84.7c-3.9,3.9-10.2,3.9-14.1,0c-3.9-3.9-3.9-10.2,0-14.1l14.1-14.1
	c1.9-1.9,4.4-2.9,7.1-2.9c1.7,0,3-1.3,3-3c0-1.7-1.3-3-3-3c-4.3,0-8.3,1.7-11.3,4.7L11.1,66.3c-3.1,3.1-4.7,7.2-4.7,11.3
	c0,4.1,1.6,8.2,4.7,11.3C17.3,95.2,27.4,95.2,33.7,89z"/>
</svg>
